<mxfile host="app.diagrams.net" modified="2021-07-30T14:43:20.961Z" agent="5.0 (Macintosh)" etag="Dy5NLuKbnK9qlAEWfoVb" version="14.9.2" type="github">
  <diagram id="vM3CRT6O0fSCeh9qT38K" name="Page-1">
    <mxGraphModel dx="1186" dy="762" grid="1" gridSize="10" guides="1" tooltips="1" connect="1" arrows="1" fold="1" page="1" pageScale="1" pageWidth="850" pageHeight="1100" math="0" shadow="0">
      <root>
        <mxCell id="0" />
        <mxCell id="1" parent="0" />
        <mxCell id="987n7R604m4FKBWGDY3R-131" value="" style="curved=1;endArrow=classic;html=1;endSize=3;strokeColor=#B3B3B3;" edge="1" parent="1">
          <mxGeometry width="50" height="50" relative="1" as="geometry">
            <mxPoint x="587" y="180" as="sourcePoint" />
            <mxPoint x="607" y="180" as="targetPoint" />
            <Array as="points">
              <mxPoint x="597" y="150" />
            </Array>
          </mxGeometry>
        </mxCell>
        <mxCell id="987n7R604m4FKBWGDY3R-28" value="" style="shape=cylinder3;whiteSpace=wrap;html=1;boundedLbl=1;backgroundOutline=1;size=15;align=center;fillColor=#fad7ac;strokeColor=#b46504;" vertex="1" parent="1">
          <mxGeometry x="130" y="120" width="10" height="70" as="geometry" />
        </mxCell>
        <mxCell id="987n7R604m4FKBWGDY3R-27" value="" style="shape=cylinder3;whiteSpace=wrap;html=1;boundedLbl=1;backgroundOutline=1;size=15;align=center;fillColor=#fad7ac;strokeColor=#b46504;" vertex="1" parent="1">
          <mxGeometry x="110" y="130" width="10" height="60" as="geometry" />
        </mxCell>
        <mxCell id="987n7R604m4FKBWGDY3R-26" value="" style="shape=cylinder3;whiteSpace=wrap;html=1;boundedLbl=1;backgroundOutline=1;size=15;align=center;fillColor=#fad7ac;strokeColor=#b46504;" vertex="1" parent="1">
          <mxGeometry x="90" y="130" width="10" height="60" as="geometry" />
        </mxCell>
        <mxCell id="987n7R604m4FKBWGDY3R-1" value="Tropical" style="text;html=1;strokeColor=none;fillColor=none;align=center;verticalAlign=middle;whiteSpace=wrap;rounded=0;rotation=-90;" vertex="1" parent="1">
          <mxGeometry x="26" y="145" width="50" height="20" as="geometry" />
        </mxCell>
        <mxCell id="987n7R604m4FKBWGDY3R-2" value="BCNM" style="text;html=1;strokeColor=none;fillColor=none;align=right;verticalAlign=middle;whiteSpace=wrap;rounded=0;" vertex="1" parent="1">
          <mxGeometry x="172" y="120" width="40" height="20" as="geometry" />
        </mxCell>
        <mxCell id="987n7R604m4FKBWGDY3R-4" value="&lt;div&gt;HKK&lt;/div&gt;" style="text;html=1;strokeColor=none;fillColor=none;align=right;verticalAlign=middle;whiteSpace=wrap;rounded=0;" vertex="1" parent="1">
          <mxGeometry x="172" y="160" width="40" height="20" as="geometry" />
        </mxCell>
        <mxCell id="987n7R604m4FKBWGDY3R-5" value="SCBI" style="text;html=1;strokeColor=none;fillColor=none;align=right;verticalAlign=middle;whiteSpace=wrap;rounded=0;" vertex="1" parent="1">
          <mxGeometry x="172" y="200" width="40" height="20" as="geometry" />
        </mxCell>
        <mxCell id="987n7R604m4FKBWGDY3R-7" value="LDW" style="text;html=1;strokeColor=none;fillColor=none;align=right;verticalAlign=middle;whiteSpace=wrap;rounded=0;" vertex="1" parent="1">
          <mxGeometry x="172" y="240" width="40" height="20" as="geometry" />
        </mxCell>
        <mxCell id="987n7R604m4FKBWGDY3R-10" value="HF" style="text;html=1;strokeColor=none;fillColor=none;align=right;verticalAlign=middle;whiteSpace=wrap;rounded=0;" vertex="1" parent="1">
          <mxGeometry x="172" y="280" width="40" height="20" as="geometry" />
        </mxCell>
        <mxCell id="987n7R604m4FKBWGDY3R-11" value="ZOF" style="text;html=1;strokeColor=none;fillColor=none;align=right;verticalAlign=middle;whiteSpace=wrap;rounded=0;" vertex="1" parent="1">
          <mxGeometry x="172" y="320" width="40" height="20" as="geometry" />
        </mxCell>
        <mxCell id="987n7R604m4FKBWGDY3R-12" value="NIO" style="text;html=1;strokeColor=none;fillColor=none;align=right;verticalAlign=middle;whiteSpace=wrap;rounded=0;" vertex="1" parent="1">
          <mxGeometry x="172" y="360" width="40" height="20" as="geometry" />
        </mxCell>
        <mxCell id="987n7R604m4FKBWGDY3R-13" value="LT" style="text;html=1;strokeColor=none;fillColor=none;align=right;verticalAlign=middle;whiteSpace=wrap;rounded=0;" vertex="1" parent="1">
          <mxGeometry x="172" y="400" width="40" height="20" as="geometry" />
        </mxCell>
        <mxCell id="987n7R604m4FKBWGDY3R-14" value="CB" style="text;html=1;strokeColor=none;fillColor=none;align=right;verticalAlign=middle;whiteSpace=wrap;rounded=0;" vertex="1" parent="1">
          <mxGeometry x="172" y="440" width="40" height="20" as="geometry" />
        </mxCell>
        <mxCell id="987n7R604m4FKBWGDY3R-15" value="SC" style="text;html=1;strokeColor=none;fillColor=none;align=right;verticalAlign=middle;whiteSpace=wrap;rounded=0;" vertex="1" parent="1">
          <mxGeometry x="172" y="480" width="40" height="20" as="geometry" />
        </mxCell>
        <mxCell id="987n7R604m4FKBWGDY3R-16" value="Water" style="text;html=1;strokeColor=none;fillColor=none;align=center;verticalAlign=middle;whiteSpace=wrap;rounded=0;fontStyle=1" vertex="1" parent="1">
          <mxGeometry x="220" y="86" width="140" height="20" as="geometry" />
        </mxCell>
        <mxCell id="987n7R604m4FKBWGDY3R-17" value="Temperataure" style="text;html=1;strokeColor=none;fillColor=none;align=center;verticalAlign=middle;whiteSpace=wrap;rounded=0;fontStyle=1" vertex="1" parent="1">
          <mxGeometry x="360" y="86" width="140" height="20" as="geometry" />
        </mxCell>
        <mxCell id="987n7R604m4FKBWGDY3R-18" value="DBH" style="text;html=1;strokeColor=none;fillColor=none;align=center;verticalAlign=middle;whiteSpace=wrap;rounded=0;fontStyle=1" vertex="1" parent="1">
          <mxGeometry x="500" y="86" width="140" height="20" as="geometry" />
        </mxCell>
        <mxCell id="987n7R604m4FKBWGDY3R-19" value="Year" style="text;html=1;strokeColor=none;fillColor=none;align=center;verticalAlign=middle;whiteSpace=wrap;rounded=0;fontStyle=1" vertex="1" parent="1">
          <mxGeometry x="640" y="86" width="140" height="20" as="geometry" />
        </mxCell>
        <mxCell id="987n7R604m4FKBWGDY3R-20" value="Boreal" style="text;html=1;strokeColor=none;fillColor=none;align=center;verticalAlign=middle;whiteSpace=wrap;rounded=0;rotation=-90;" vertex="1" parent="1">
          <mxGeometry x="36" y="480" width="50" height="20" as="geometry" />
        </mxCell>
        <mxCell id="987n7R604m4FKBWGDY3R-21" value="Temperate broadleaf" style="text;html=1;strokeColor=none;fillColor=none;align=center;verticalAlign=middle;whiteSpace=wrap;rounded=0;rotation=-90;" vertex="1" parent="1">
          <mxGeometry x="17.75" y="240" width="66.5" height="20" as="geometry" />
        </mxCell>
        <mxCell id="987n7R604m4FKBWGDY3R-23" value="" style="ellipse;shape=cloud;whiteSpace=wrap;html=1;align=center;fillColor=#008a00;strokeColor=#005700;fontColor=#ffffff;" vertex="1" parent="1">
          <mxGeometry x="70" y="120" width="60" height="25" as="geometry" />
        </mxCell>
        <mxCell id="987n7R604m4FKBWGDY3R-24" value="" style="ellipse;shape=cloud;whiteSpace=wrap;html=1;align=center;fillColor=#008a00;strokeColor=#005700;fontColor=#ffffff;" vertex="1" parent="1">
          <mxGeometry x="90" y="140" width="50" height="20" as="geometry" />
        </mxCell>
        <mxCell id="987n7R604m4FKBWGDY3R-25" value="" style="ellipse;shape=cloud;whiteSpace=wrap;html=1;align=center;fillColor=#60a917;strokeColor=#2D7600;fontColor=#ffffff;" vertex="1" parent="1">
          <mxGeometry x="100" y="101" width="60" height="25" as="geometry" />
        </mxCell>
        <mxCell id="987n7R604m4FKBWGDY3R-32" value="" style="shape=cylinder3;whiteSpace=wrap;html=1;boundedLbl=1;backgroundOutline=1;size=15;align=center;fillColor=#fad7ac;strokeColor=#b46504;" vertex="1" parent="1">
          <mxGeometry x="130" y="220" width="10" height="60" as="geometry" />
        </mxCell>
        <mxCell id="987n7R604m4FKBWGDY3R-33" value="" style="shape=cylinder3;whiteSpace=wrap;html=1;boundedLbl=1;backgroundOutline=1;size=15;align=center;fillColor=#fad7ac;strokeColor=#b46504;" vertex="1" parent="1">
          <mxGeometry x="110" y="220" width="10" height="60" as="geometry" />
        </mxCell>
        <mxCell id="987n7R604m4FKBWGDY3R-34" value="" style="shape=cylinder3;whiteSpace=wrap;html=1;boundedLbl=1;backgroundOutline=1;size=15;align=center;fillColor=#fad7ac;strokeColor=#b46504;" vertex="1" parent="1">
          <mxGeometry x="90" y="220" width="10" height="60" as="geometry" />
        </mxCell>
        <mxCell id="987n7R604m4FKBWGDY3R-35" value="" style="ellipse;shape=cloud;whiteSpace=wrap;html=1;align=center;fillColor=#008a00;strokeColor=#005700;fontColor=#ffffff;" vertex="1" parent="1">
          <mxGeometry x="70" y="210" width="60" height="30" as="geometry" />
        </mxCell>
        <mxCell id="987n7R604m4FKBWGDY3R-36" value="" style="ellipse;shape=cloud;whiteSpace=wrap;html=1;align=center;fillColor=#60a917;strokeColor=#2D7600;fontColor=#ffffff;" vertex="1" parent="1">
          <mxGeometry x="100" y="205" width="60" height="35" as="geometry" />
        </mxCell>
        <mxCell id="987n7R604m4FKBWGDY3R-38" value="" style="ellipse;shape=cloud;whiteSpace=wrap;html=1;align=center;fillColor=#008a00;strokeColor=#005700;fontColor=#ffffff;" vertex="1" parent="1">
          <mxGeometry x="90" y="240" width="50" height="20" as="geometry" />
        </mxCell>
        <mxCell id="987n7R604m4FKBWGDY3R-39" value="" style="triangle;whiteSpace=wrap;html=1;align=center;rotation=-90;fillColor=#008a00;strokeColor=#005700;fontColor=#ffffff;" vertex="1" parent="1">
          <mxGeometry x="80" y="480" width="40" height="10" as="geometry" />
        </mxCell>
        <mxCell id="987n7R604m4FKBWGDY3R-40" value="" style="triangle;whiteSpace=wrap;html=1;align=center;rotation=-90;fillColor=#008a00;strokeColor=#005700;fontColor=#ffffff;" vertex="1" parent="1">
          <mxGeometry x="96" y="487" width="40" height="10" as="geometry" />
        </mxCell>
        <mxCell id="987n7R604m4FKBWGDY3R-41" value="" style="triangle;whiteSpace=wrap;html=1;align=center;rotation=-90;fillColor=#008a00;strokeColor=#005700;fontColor=#ffffff;" vertex="1" parent="1">
          <mxGeometry x="110" y="485" width="40" height="10" as="geometry" />
        </mxCell>
        <mxCell id="987n7R604m4FKBWGDY3R-42" value="" style="triangle;whiteSpace=wrap;html=1;align=center;rotation=-90;fillColor=#008a00;strokeColor=#005700;fontColor=#ffffff;" vertex="1" parent="1">
          <mxGeometry x="126" y="487" width="40" height="10" as="geometry" />
        </mxCell>
        <mxCell id="987n7R604m4FKBWGDY3R-45" value="Temperate conifer" style="text;html=1;strokeColor=none;fillColor=none;align=center;verticalAlign=middle;whiteSpace=wrap;rounded=0;rotation=-90;" vertex="1" parent="1">
          <mxGeometry x="23.5" y="420" width="66.5" height="20" as="geometry" />
        </mxCell>
        <mxCell id="987n7R604m4FKBWGDY3R-46" value="Temperate mixed" style="text;html=1;strokeColor=none;fillColor=none;align=center;verticalAlign=middle;whiteSpace=wrap;rounded=0;rotation=-90;" vertex="1" parent="1">
          <mxGeometry x="19.5" y="330" width="66.5" height="20" as="geometry" />
        </mxCell>
        <mxCell id="987n7R604m4FKBWGDY3R-49" style="rounded=0;orthogonalLoop=1;jettySize=auto;html=1;exitX=1;exitY=0.5;exitDx=0;exitDy=0;entryX=0;entryY=0.5;entryDx=0;entryDy=0;fillColor=#6a00ff;strokeColor=#3700CC;" edge="1" parent="1" source="987n7R604m4FKBWGDY3R-47" target="987n7R604m4FKBWGDY3R-48">
          <mxGeometry relative="1" as="geometry" />
        </mxCell>
        <mxCell id="987n7R604m4FKBWGDY3R-47" value="1903" style="text;html=1;align=center;verticalAlign=middle;whiteSpace=wrap;rounded=1;shadow=1;fontStyle=1;fillColor=#0050ef;strokeColor=#001DBC;fontColor=#ffffff;" vertex="1" parent="1">
          <mxGeometry x="650" y="47" width="50" height="30" as="geometry" />
        </mxCell>
        <mxCell id="987n7R604m4FKBWGDY3R-48" value="2019" style="text;html=1;align=center;verticalAlign=middle;whiteSpace=wrap;rounded=1;shadow=1;fontStyle=1;fillColor=#d80073;strokeColor=#A50040;fontColor=#ffffff;" vertex="1" parent="1">
          <mxGeometry x="719" y="47" width="50" height="30" as="geometry" />
        </mxCell>
        <mxCell id="987n7R604m4FKBWGDY3R-50" value="" style="ellipse;shape=cloud;whiteSpace=wrap;html=1;rounded=1;shadow=1;align=center;gradientColor=#b3b3b3;fillColor=#f5f5f5;strokeColor=#666666;" vertex="1" parent="1">
          <mxGeometry x="220" y="17" width="90" height="40" as="geometry" />
        </mxCell>
        <mxCell id="987n7R604m4FKBWGDY3R-52" value="" style="ellipse;shape=cloud;whiteSpace=wrap;html=1;rounded=1;shadow=1;align=center;gradientColor=#b3b3b3;fillColor=#f5f5f5;strokeColor=#666666;" vertex="1" parent="1">
          <mxGeometry x="280" y="7" width="80" height="50" as="geometry" />
        </mxCell>
        <mxCell id="987n7R604m4FKBWGDY3R-56" value="" style="endArrow=none;dashed=1;html=1;dashPattern=1 1;strokeWidth=2;rounded=0;entryX=0.55;entryY=0.95;entryDx=0;entryDy=0;entryPerimeter=0;fillColor=#1ba1e2;strokeColor=#006EAF;" edge="1" parent="1">
          <mxGeometry width="50" height="50" relative="1" as="geometry">
            <mxPoint x="275" y="81" as="sourcePoint" />
            <mxPoint x="288.5" y="54" as="targetPoint" />
          </mxGeometry>
        </mxCell>
        <mxCell id="987n7R604m4FKBWGDY3R-57" value="" style="endArrow=none;dashed=1;html=1;dashPattern=1 1;strokeWidth=2;rounded=0;entryX=0.55;entryY=0.95;entryDx=0;entryDy=0;entryPerimeter=0;fillColor=#1ba1e2;strokeColor=#006EAF;" edge="1" parent="1">
          <mxGeometry width="50" height="50" relative="1" as="geometry">
            <mxPoint x="285" y="79" as="sourcePoint" />
            <mxPoint x="298.5" y="52" as="targetPoint" />
          </mxGeometry>
        </mxCell>
        <mxCell id="987n7R604m4FKBWGDY3R-59" value="" style="endArrow=none;dashed=1;html=1;dashPattern=1 1;strokeWidth=2;rounded=0;entryX=0.55;entryY=0.95;entryDx=0;entryDy=0;entryPerimeter=0;fillColor=#1ba1e2;strokeColor=#006EAF;" edge="1" parent="1">
          <mxGeometry width="50" height="50" relative="1" as="geometry">
            <mxPoint x="305" y="81" as="sourcePoint" />
            <mxPoint x="318.5" y="54" as="targetPoint" />
          </mxGeometry>
        </mxCell>
        <mxCell id="987n7R604m4FKBWGDY3R-60" value="" style="endArrow=none;dashed=1;html=1;dashPattern=1 1;strokeWidth=2;rounded=0;entryX=0.55;entryY=0.95;entryDx=0;entryDy=0;entryPerimeter=0;fillColor=#1ba1e2;strokeColor=#006EAF;" edge="1" parent="1">
          <mxGeometry width="50" height="50" relative="1" as="geometry">
            <mxPoint x="315" y="83" as="sourcePoint" />
            <mxPoint x="328.5" y="56" as="targetPoint" />
          </mxGeometry>
        </mxCell>
        <mxCell id="987n7R604m4FKBWGDY3R-64" value="" style="endArrow=none;dashed=1;html=1;dashPattern=1 1;strokeWidth=2;rounded=0;entryX=0.55;entryY=0.95;entryDx=0;entryDy=0;entryPerimeter=0;fillColor=#1ba1e2;strokeColor=#006EAF;" edge="1" parent="1">
          <mxGeometry width="50" height="50" relative="1" as="geometry">
            <mxPoint x="290" y="83" as="sourcePoint" />
            <mxPoint x="303.5" y="56" as="targetPoint" />
          </mxGeometry>
        </mxCell>
        <mxCell id="987n7R604m4FKBWGDY3R-65" value="" style="endArrow=none;dashed=1;html=1;dashPattern=1 1;strokeWidth=2;rounded=0;entryX=0.55;entryY=0.95;entryDx=0;entryDy=0;entryPerimeter=0;fillColor=#1ba1e2;strokeColor=#006EAF;" edge="1" parent="1">
          <mxGeometry width="50" height="50" relative="1" as="geometry">
            <mxPoint x="300" y="81" as="sourcePoint" />
            <mxPoint x="313.5" y="54" as="targetPoint" />
          </mxGeometry>
        </mxCell>
        <mxCell id="987n7R604m4FKBWGDY3R-66" value="" style="endArrow=none;dashed=1;html=1;dashPattern=1 1;strokeWidth=2;rounded=0;entryX=0.55;entryY=0.95;entryDx=0;entryDy=0;entryPerimeter=0;fillColor=#1ba1e2;strokeColor=#006EAF;" edge="1" parent="1">
          <mxGeometry width="50" height="50" relative="1" as="geometry">
            <mxPoint x="245" y="85" as="sourcePoint" />
            <mxPoint x="258.5" y="58" as="targetPoint" />
          </mxGeometry>
        </mxCell>
        <mxCell id="987n7R604m4FKBWGDY3R-67" value="" style="endArrow=none;dashed=1;html=1;dashPattern=1 1;strokeWidth=2;rounded=0;entryX=0.55;entryY=0.95;entryDx=0;entryDy=0;entryPerimeter=0;fillColor=#1ba1e2;strokeColor=#006EAF;" edge="1" parent="1">
          <mxGeometry width="50" height="50" relative="1" as="geometry">
            <mxPoint x="255" y="83" as="sourcePoint" />
            <mxPoint x="268.5" y="56" as="targetPoint" />
          </mxGeometry>
        </mxCell>
        <mxCell id="987n7R604m4FKBWGDY3R-68" value="&lt;div&gt;&quot;o&quot; = no effect; dot = not tested&lt;br&gt;&lt;/div&gt;&lt;div&gt;dotted lines indicate that effect was included in best model but not significant, or that it&#39;s significance depended on other model terms included&lt;br&gt;&lt;/div&gt;&lt;div&gt;within site, species ordered alphabetically&lt;br&gt;&lt;/div&gt;" style="text;html=1;align=left;verticalAlign=middle;resizable=0;points=[];autosize=1;strokeColor=none;" vertex="1" parent="1">
          <mxGeometry x="60" y="565" width="770" height="50" as="geometry" />
        </mxCell>
        <mxCell id="987n7R604m4FKBWGDY3R-69" value="" style="endArrow=classic;html=1;endSize=3;" edge="1" parent="1">
          <mxGeometry width="50" height="50" relative="1" as="geometry">
            <mxPoint x="282" y="140.5" as="sourcePoint" />
            <mxPoint x="302" y="120.5" as="targetPoint" />
          </mxGeometry>
        </mxCell>
        <mxCell id="987n7R604m4FKBWGDY3R-72" value="" style="endArrow=classic;html=1;endSize=3;" edge="1" parent="1">
          <mxGeometry width="50" height="50" relative="1" as="geometry">
            <mxPoint x="40" y="660" as="sourcePoint" />
            <mxPoint x="60" y="640" as="targetPoint" />
          </mxGeometry>
        </mxCell>
        <mxCell id="987n7R604m4FKBWGDY3R-75" value="" style="curved=1;endArrow=classic;html=1;endSize=3;" edge="1" parent="1">
          <mxGeometry width="50" height="50" relative="1" as="geometry">
            <mxPoint x="40" y="680" as="sourcePoint" />
            <mxPoint x="60" y="660" as="targetPoint" />
            <Array as="points">
              <mxPoint x="40" y="670" />
            </Array>
          </mxGeometry>
        </mxCell>
        <mxCell id="987n7R604m4FKBWGDY3R-77" value="" style="ellipse;whiteSpace=wrap;html=1;aspect=fixed;rounded=1;shadow=0;align=left;fillColor=none;" vertex="1" parent="1">
          <mxGeometry x="424" y="124" width="10" height="10" as="geometry" />
        </mxCell>
        <mxCell id="987n7R604m4FKBWGDY3R-78" value="" style="ellipse;whiteSpace=wrap;html=1;aspect=fixed;rounded=1;shadow=0;align=left;fillColor=none;" vertex="1" parent="1">
          <mxGeometry x="407" y="124" width="10" height="10" as="geometry" />
        </mxCell>
        <mxCell id="987n7R604m4FKBWGDY3R-79" value="" style="endArrow=classic;html=1;dashed=1;dashPattern=1 2;endSize=3;" edge="1" parent="1">
          <mxGeometry width="50" height="50" relative="1" as="geometry">
            <mxPoint x="440" y="140" as="sourcePoint" />
            <mxPoint x="460" y="120" as="targetPoint" />
          </mxGeometry>
        </mxCell>
        <mxCell id="987n7R604m4FKBWGDY3R-85" value="" style="endArrow=classic;html=1;endSize=3;" edge="1" parent="1">
          <mxGeometry width="50" height="50" relative="1" as="geometry">
            <mxPoint x="721" y="120" as="sourcePoint" />
            <mxPoint x="741" y="140" as="targetPoint" />
          </mxGeometry>
        </mxCell>
        <mxCell id="987n7R604m4FKBWGDY3R-86" value="" style="ellipse;whiteSpace=wrap;html=1;aspect=fixed;rounded=1;shadow=0;align=left;fillColor=none;" vertex="1" parent="1">
          <mxGeometry x="704" y="124" width="10" height="10" as="geometry" />
        </mxCell>
        <mxCell id="987n7R604m4FKBWGDY3R-87" value="" style="ellipse;whiteSpace=wrap;html=1;aspect=fixed;rounded=1;shadow=0;align=left;fillColor=none;" vertex="1" parent="1">
          <mxGeometry x="610" y="195" as="geometry" />
        </mxCell>
        <mxCell id="987n7R604m4FKBWGDY3R-88" value="" style="shape=waypoint;size=6;pointerEvents=1;points=[];fillColor=none;resizable=0;rotatable=0;perimeter=centerPerimeter;snapToPoint=1;rounded=1;shadow=0;align=left;" vertex="1" parent="1">
          <mxGeometry x="670" y="109" width="40" height="40" as="geometry" />
        </mxCell>
        <mxCell id="987n7R604m4FKBWGDY3R-91" value="" style="endArrow=classic;html=1;endSize=3;" edge="1" parent="1">
          <mxGeometry width="50" height="50" relative="1" as="geometry">
            <mxPoint x="699" y="360" as="sourcePoint" />
            <mxPoint x="719" y="380" as="targetPoint" />
          </mxGeometry>
        </mxCell>
        <mxCell id="987n7R604m4FKBWGDY3R-92" value="" style="curved=1;endArrow=classic;html=1;endSize=3;" edge="1" parent="1">
          <mxGeometry width="50" height="50" relative="1" as="geometry">
            <mxPoint x="40" y="730" as="sourcePoint" />
            <mxPoint x="60" y="740" as="targetPoint" />
            <Array as="points">
              <mxPoint x="50" y="710" />
            </Array>
          </mxGeometry>
        </mxCell>
        <mxCell id="987n7R604m4FKBWGDY3R-93" value="" style="endArrow=classic;html=1;endSize=3;" edge="1" parent="1">
          <mxGeometry width="50" height="50" relative="1" as="geometry">
            <mxPoint x="420" y="360" as="sourcePoint" />
            <mxPoint x="440" y="380" as="targetPoint" />
          </mxGeometry>
        </mxCell>
        <mxCell id="987n7R604m4FKBWGDY3R-94" value="" style="endArrow=classic;html=1;dashed=1;dashPattern=1 2;endSize=3;" edge="1" parent="1">
          <mxGeometry width="50" height="50" relative="1" as="geometry">
            <mxPoint x="280" y="380" as="sourcePoint" />
            <mxPoint x="300" y="360" as="targetPoint" />
          </mxGeometry>
        </mxCell>
        <mxCell id="987n7R604m4FKBWGDY3R-101" value="" style="curved=1;endArrow=classic;html=1;endSize=3;" edge="1" parent="1">
          <mxGeometry width="50" height="50" relative="1" as="geometry">
            <mxPoint x="40" y="720" as="sourcePoint" />
            <mxPoint x="60" y="720" as="targetPoint" />
            <Array as="points">
              <mxPoint x="50" y="690" />
            </Array>
          </mxGeometry>
        </mxCell>
        <mxCell id="987n7R604m4FKBWGDY3R-102" value="" style="curved=1;endArrow=classic;html=1;endSize=3;" edge="1" parent="1">
          <mxGeometry width="50" height="50" relative="1" as="geometry">
            <mxPoint x="41" y="780" as="sourcePoint" />
            <mxPoint x="61" y="800" as="targetPoint" />
            <Array as="points">
              <mxPoint x="41" y="800" />
            </Array>
          </mxGeometry>
        </mxCell>
        <mxCell id="987n7R604m4FKBWGDY3R-103" value="" style="endArrow=classic;html=1;endSize=3;" edge="1" parent="1">
          <mxGeometry width="50" height="50" relative="1" as="geometry">
            <mxPoint x="40" y="760" as="sourcePoint" />
            <mxPoint x="60" y="780" as="targetPoint" />
          </mxGeometry>
        </mxCell>
        <mxCell id="987n7R604m4FKBWGDY3R-104" value="" style="curved=1;endArrow=classic;html=1;endSize=3;" edge="1" parent="1">
          <mxGeometry width="50" height="50" relative="1" as="geometry">
            <mxPoint x="40" y="700" as="sourcePoint" />
            <mxPoint x="60" y="690" as="targetPoint" />
            <Array as="points">
              <mxPoint x="50" y="680" />
            </Array>
          </mxGeometry>
        </mxCell>
        <mxCell id="987n7R604m4FKBWGDY3R-105" value="" style="curved=1;endArrow=classic;html=1;endSize=3;" edge="1" parent="1">
          <mxGeometry width="50" height="50" relative="1" as="geometry">
            <mxPoint x="40" y="740" as="sourcePoint" />
            <mxPoint x="60" y="760" as="targetPoint" />
            <Array as="points">
              <mxPoint x="50" y="740" />
            </Array>
          </mxGeometry>
        </mxCell>
        <mxCell id="987n7R604m4FKBWGDY3R-110" value="" style="curved=1;endArrow=classic;html=1;endSize=3;" edge="1" parent="1">
          <mxGeometry width="50" height="50" relative="1" as="geometry">
            <mxPoint x="520" y="180" as="sourcePoint" />
            <mxPoint x="540" y="180" as="targetPoint" />
            <Array as="points">
              <mxPoint x="530" y="150" />
            </Array>
          </mxGeometry>
        </mxCell>
        <mxCell id="987n7R604m4FKBWGDY3R-111" value="" style="curved=1;endArrow=classic;html=1;endSize=3;" edge="1" parent="1">
          <mxGeometry width="50" height="50" relative="1" as="geometry">
            <mxPoint x="564" y="160" as="sourcePoint" />
            <mxPoint x="584" y="180" as="targetPoint" />
            <Array as="points">
              <mxPoint x="564" y="180" />
            </Array>
          </mxGeometry>
        </mxCell>
        <mxCell id="987n7R604m4FKBWGDY3R-113" value="" style="curved=1;endArrow=classic;html=1;endSize=3;" edge="1" parent="1">
          <mxGeometry width="50" height="50" relative="1" as="geometry">
            <mxPoint x="258" y="142" as="sourcePoint" />
            <mxPoint x="278" y="122" as="targetPoint" />
            <Array as="points">
              <mxPoint x="258" y="132" />
            </Array>
          </mxGeometry>
        </mxCell>
        <mxCell id="987n7R604m4FKBWGDY3R-114" value="" style="curved=1;endArrow=classic;html=1;endSize=3;" edge="1" parent="1">
          <mxGeometry width="50" height="50" relative="1" as="geometry">
            <mxPoint x="309" y="140" as="sourcePoint" />
            <mxPoint x="329" y="120" as="targetPoint" />
            <Array as="points">
              <mxPoint x="309" y="130" />
            </Array>
          </mxGeometry>
        </mxCell>
        <mxCell id="987n7R604m4FKBWGDY3R-115" value="" style="curved=1;endArrow=classic;html=1;endSize=3;" edge="1" parent="1">
          <mxGeometry width="50" height="50" relative="1" as="geometry">
            <mxPoint x="560" y="140" as="sourcePoint" />
            <mxPoint x="580" y="130" as="targetPoint" />
            <Array as="points">
              <mxPoint x="570" y="120" />
            </Array>
          </mxGeometry>
        </mxCell>
        <mxCell id="987n7R604m4FKBWGDY3R-116" value="" style="curved=1;endArrow=classic;html=1;endSize=3;" edge="1" parent="1">
          <mxGeometry width="50" height="50" relative="1" as="geometry">
            <mxPoint x="580" y="140" as="sourcePoint" />
            <mxPoint x="600" y="130" as="targetPoint" />
            <Array as="points">
              <mxPoint x="590" y="120" />
            </Array>
          </mxGeometry>
        </mxCell>
        <mxCell id="987n7R604m4FKBWGDY3R-117" value="" style="curved=1;endArrow=classic;html=1;endSize=3;" edge="1" parent="1">
          <mxGeometry width="50" height="50" relative="1" as="geometry">
            <mxPoint x="537" y="131" as="sourcePoint" />
            <mxPoint x="557" y="141" as="targetPoint" />
            <Array as="points">
              <mxPoint x="547" y="111" />
            </Array>
          </mxGeometry>
        </mxCell>
        <mxCell id="987n7R604m4FKBWGDY3R-118" value="" style="curved=1;endArrow=classic;html=1;endSize=3;" edge="1" parent="1">
          <mxGeometry width="50" height="50" relative="1" as="geometry">
            <mxPoint x="562" y="370" as="sourcePoint" />
            <mxPoint x="582" y="380" as="targetPoint" />
            <Array as="points">
              <mxPoint x="572" y="350" />
            </Array>
          </mxGeometry>
        </mxCell>
        <mxCell id="987n7R604m4FKBWGDY3R-119" value="" style="endArrow=none;html=1;endSize=3;" edge="1" parent="1">
          <mxGeometry width="50" height="50" relative="1" as="geometry">
            <mxPoint x="359" y="520" as="sourcePoint" />
            <mxPoint x="360" y="80" as="targetPoint" />
          </mxGeometry>
        </mxCell>
        <mxCell id="987n7R604m4FKBWGDY3R-120" value="" style="endArrow=none;html=1;endSize=3;" edge="1" parent="1">
          <mxGeometry width="50" height="50" relative="1" as="geometry">
            <mxPoint x="499" y="517" as="sourcePoint" />
            <mxPoint x="500" y="77" as="targetPoint" />
          </mxGeometry>
        </mxCell>
        <mxCell id="987n7R604m4FKBWGDY3R-121" value="" style="endArrow=none;html=1;endSize=3;" edge="1" parent="1">
          <mxGeometry width="50" height="50" relative="1" as="geometry">
            <mxPoint x="640" y="517" as="sourcePoint" />
            <mxPoint x="641" y="77" as="targetPoint" />
          </mxGeometry>
        </mxCell>
        <mxCell id="987n7R604m4FKBWGDY3R-122" value="" style="endArrow=none;html=1;endSize=3;" edge="1" parent="1">
          <mxGeometry width="50" height="50" relative="1" as="geometry">
            <mxPoint x="780" y="521" as="sourcePoint" />
            <mxPoint x="781" y="81" as="targetPoint" />
          </mxGeometry>
        </mxCell>
        <mxCell id="987n7R604m4FKBWGDY3R-123" value="" style="endArrow=none;html=1;endSize=3;" edge="1" parent="1">
          <mxGeometry width="50" height="50" relative="1" as="geometry">
            <mxPoint x="220" y="520" as="sourcePoint" />
            <mxPoint x="221" y="80" as="targetPoint" />
          </mxGeometry>
        </mxCell>
        <mxCell id="987n7R604m4FKBWGDY3R-125" value="" style="endArrow=none;html=1;endSize=3;" edge="1" parent="1">
          <mxGeometry width="50" height="50" relative="1" as="geometry">
            <mxPoint x="170" y="110" as="sourcePoint" />
            <mxPoint x="780" y="110" as="targetPoint" />
          </mxGeometry>
        </mxCell>
        <mxCell id="987n7R604m4FKBWGDY3R-126" value="" style="endArrow=none;html=1;endSize=3;" edge="1" parent="1">
          <mxGeometry width="50" height="50" relative="1" as="geometry">
            <mxPoint x="172" y="520" as="sourcePoint" />
            <mxPoint x="782" y="520" as="targetPoint" />
          </mxGeometry>
        </mxCell>
        <mxCell id="987n7R604m4FKBWGDY3R-127" value="" style="endArrow=none;html=1;endSize=3;" edge="1" parent="1">
          <mxGeometry width="50" height="50" relative="1" as="geometry">
            <mxPoint x="172" y="150" as="sourcePoint" />
            <mxPoint x="782" y="150" as="targetPoint" />
          </mxGeometry>
        </mxCell>
        <mxCell id="987n7R604m4FKBWGDY3R-128" value="" style="endArrow=none;html=1;endSize=3;" edge="1" parent="1">
          <mxGeometry width="50" height="50" relative="1" as="geometry">
            <mxPoint x="172" y="189" as="sourcePoint" />
            <mxPoint x="782" y="189" as="targetPoint" />
          </mxGeometry>
        </mxCell>
        <mxCell id="987n7R604m4FKBWGDY3R-129" value="" style="curved=1;endArrow=classic;html=1;endSize=3;" edge="1" parent="1">
          <mxGeometry width="50" height="50" relative="1" as="geometry">
            <mxPoint x="542" y="180" as="sourcePoint" />
            <mxPoint x="562" y="170" as="targetPoint" />
            <Array as="points">
              <mxPoint x="552" y="160" />
            </Array>
          </mxGeometry>
        </mxCell>
        <mxCell id="987n7R604m4FKBWGDY3R-130" value="" style="curved=1;endArrow=classic;html=1;endSize=3;" edge="1" parent="1">
          <mxGeometry width="50" height="50" relative="1" as="geometry">
            <mxPoint x="586" y="180" as="sourcePoint" />
            <mxPoint x="606" y="170" as="targetPoint" />
            <Array as="points">
              <mxPoint x="596" y="160" />
            </Array>
          </mxGeometry>
        </mxCell>
        <mxCell id="987n7R604m4FKBWGDY3R-132" value="" style="shape=waypoint;size=6;pointerEvents=1;points=[];fillColor=none;resizable=0;rotatable=0;perimeter=centerPerimeter;snapToPoint=1;rounded=1;shadow=0;align=left;" vertex="1" parent="1">
          <mxGeometry x="691" y="150" width="40" height="40" as="geometry" />
        </mxCell>
        <mxCell id="987n7R604m4FKBWGDY3R-133" value="" style="ellipse;whiteSpace=wrap;html=1;aspect=fixed;rounded=1;shadow=0;align=left;fillColor=none;" vertex="1" parent="1">
          <mxGeometry x="687" y="166" width="10" height="10" as="geometry" />
        </mxCell>
        <mxCell id="987n7R604m4FKBWGDY3R-134" value="" style="endArrow=classic;html=1;endSize=3;" edge="1" parent="1">
          <mxGeometry width="50" height="50" relative="1" as="geometry">
            <mxPoint x="660" y="160" as="sourcePoint" />
            <mxPoint x="680" y="180" as="targetPoint" />
          </mxGeometry>
        </mxCell>
        <mxCell id="987n7R604m4FKBWGDY3R-135" value="" style="endArrow=classic;html=1;endSize=3;" edge="1" parent="1">
          <mxGeometry width="50" height="50" relative="1" as="geometry">
            <mxPoint x="723" y="160" as="sourcePoint" />
            <mxPoint x="743" y="180" as="targetPoint" />
          </mxGeometry>
        </mxCell>
        <mxCell id="987n7R604m4FKBWGDY3R-136" value="" style="endArrow=classic;html=1;endSize=3;" edge="1" parent="1">
          <mxGeometry width="50" height="50" relative="1" as="geometry">
            <mxPoint x="240" y="180" as="sourcePoint" />
            <mxPoint x="260" y="160" as="targetPoint" />
          </mxGeometry>
        </mxCell>
        <mxCell id="987n7R604m4FKBWGDY3R-138" value="" style="ellipse;whiteSpace=wrap;html=1;aspect=fixed;rounded=1;shadow=0;align=left;fillColor=none;" vertex="1" parent="1">
          <mxGeometry x="263" y="165" width="10" height="10" as="geometry" />
        </mxCell>
        <mxCell id="987n7R604m4FKBWGDY3R-139" value="" style="endArrow=classic;html=1;endSize=3;" edge="1" parent="1">
          <mxGeometry width="50" height="50" relative="1" as="geometry">
            <mxPoint x="282" y="180" as="sourcePoint" />
            <mxPoint x="302" y="160" as="targetPoint" />
          </mxGeometry>
        </mxCell>
        <mxCell id="987n7R604m4FKBWGDY3R-140" value="" style="endArrow=classic;html=1;endSize=3;" edge="1" parent="1">
          <mxGeometry width="50" height="50" relative="1" as="geometry">
            <mxPoint x="304" y="180" as="sourcePoint" />
            <mxPoint x="324" y="160" as="targetPoint" />
          </mxGeometry>
        </mxCell>
        <mxCell id="987n7R604m4FKBWGDY3R-141" value="" style="endArrow=classic;html=1;dashed=1;dashPattern=1 2;endSize=3;" edge="1" parent="1">
          <mxGeometry width="50" height="50" relative="1" as="geometry">
            <mxPoint x="380" y="180" as="sourcePoint" />
            <mxPoint x="400" y="160" as="targetPoint" />
          </mxGeometry>
        </mxCell>
        <mxCell id="987n7R604m4FKBWGDY3R-142" value="" style="endArrow=classic;html=1;endSize=3;" edge="1" parent="1">
          <mxGeometry width="50" height="50" relative="1" as="geometry">
            <mxPoint x="402" y="160" as="sourcePoint" />
            <mxPoint x="422" y="180" as="targetPoint" />
          </mxGeometry>
        </mxCell>
        <mxCell id="987n7R604m4FKBWGDY3R-143" value="" style="endArrow=classic;html=1;endSize=3;" edge="1" parent="1">
          <mxGeometry width="50" height="50" relative="1" as="geometry">
            <mxPoint x="420" y="160" as="sourcePoint" />
            <mxPoint x="440" y="180" as="targetPoint" />
          </mxGeometry>
        </mxCell>
        <mxCell id="987n7R604m4FKBWGDY3R-144" value="" style="endArrow=classic;html=1;endSize=3;" edge="1" parent="1">
          <mxGeometry width="50" height="50" relative="1" as="geometry">
            <mxPoint x="440" y="160" as="sourcePoint" />
            <mxPoint x="460" y="180" as="targetPoint" />
          </mxGeometry>
        </mxCell>
      </root>
    </mxGraphModel>
  </diagram>
</mxfile>
